{
  "accessors": [
    {
      "bufferView": 1,
      "componentType": 5126,
      "count": 276,
      "max": [
        2.4285242557525635,
        1.3993222713470459,
        0.53917545080184937
      ],
      "min": [
        -2.4285242557525635,
        -1.3974038362503052,
        -0.53917545080184937
      ],
      "type": "VEC3"
    },
    {
      "bufferView": 1,
      "byteOffset": 3312,
      "componentType": 5126,
      "count": 276,
      "max": [
        1,
        0.99999624490737915,
        1
      ],
      "min": [
        -1,
        -1,
        -1
      ],
      "type": "VEC3"
    },
    {
      "bufferView": 0,
      "componentType": 5125,
      "count": 438,
      "max": [
        275
      ],
      "min": [
        0
      ],
      "type": "SCALAR"
    },
    {
      "bufferView": 1,
      "byteOffset": 6624,
      "componentType": 5126,
      "count": 200,
      "max": [
        2.1207919120788574,
        1.4645011425018311,
        0.40856686234474182
      ],
      "min": [
        -0.093821048736572266,
        -1.4597835540771484,
        -0.24244621396064758
      ],
      "type": "VEC3"
    },
    {
      "bufferView": 1,
      "byteOffset": 9024,
      "componentType": 5126,
      "count": 200,
      "max": [
        1,
        1,
        1
      ],
      "min": [
        -1,
        -1,
        -1
      ],
      "type": "VEC3"
    },
    {
      "bufferView": 0,
      "byteOffset": 1752,
      "componentType": 5125,
      "count": 312,
      "max": [
        199
      ],
      "min": [
        0
      ],
      "type": "SCALAR"
    },
    {
      "bufferView": 1,
      "byteOffset": 11424,
      "componentType": 5126,
      "count": 36,
      "max": [
        2.0065057277679443,
        1.400002121925354,
        0.29100269079208374
      ],
      "min": [
        0.39518716931343079,
        -1.3360066413879395,
        0.15376317501068115
      ],
      "type": "VEC3"
    },
    {
      "bufferView": 1,
      "byteOffset": 11856,
      "componentType": 5126,
      "count": 36,
      "max": [
        1,
        0.99997472763061523,
        1
      ],
      "min": [
        -1,
        -1,
        -1
      ],
      "type": "VEC3"
    },
    {
      "bufferView": 0,
      "byteOffset": 3000,
      "componentType": 5125,
      "count": 54,
      "max": [
        35
      ],
      "min": [
        0
      ],
      "type": "SCALAR"
    },
    {
      "bufferView": 1,
      "byteOffset": 12288,
      "componentType": 5126,
      "count": 92,
      "max": [
        0.099323868751525879,
        -0.89426112174987793,
        0.59564685821533203
      ],
      "min": [
        -0.17562693357467651,
        -1.4404367208480835,
        0.12108427286148071
      ],
      "type": "VEC3"
    },
    {
      "bufferView": 1,
      "byteOffset": 13392,
      "componentType": 5126,
      "count": 92,
      "max": [
        1,
        1,
        1
      ],
      "min": [
        -1,
        -1,
        -1
      ],
      "type": "VEC3"
    },
    {
      "bufferView": 0,
      "byteOffset": 3216,
      "componentType": 5125,
      "count": 144,
      "max": [
        91
      ],
      "min": [
        0
      ],
      "type": "SCALAR"
    },
    {
      "bufferView": 1,
      "byteOffset": 14496,
      "componentType": 5126,
      "count": 36,
      "max": [
        -0.25122067332267761,
        -0.8199811577796936,
        0.5800633430480957
      ],
      "min": [
        -0.45052865147590637,
        -1.0501222610473633,
        0.34992226958274841
      ],
      "type": "VEC3"
    },
    {
      "bufferView": 1,
      "byteOffset": 14928,
      "componentType": 5126,
      "count": 36,
      "max": [
        1,
        0.86602538824081421,
        1
      ],
      "min": [
        -1,
        -0.86602538824081421,
        -1
      ],
      "type": "VEC3"
    },
    {
      "bufferView": 0,
      "byteOffset": 3792,
      "componentType": 5125,
      "count": 60,
      "max": [
        35
      ],
      "min": [
        0
      ],
      "type": "SCALAR"
    },
    {
      "bufferView": 1,
      "byteOffset": 15360,
      "componentType": 5126,
      "count": 329,
      "max": [
        1.1636159420013428,
        1.9839301109313965,
        1.0338743925094604
      ],
      "min": [
        -1.1636159420013428,
        -1.4229730367660522,
        -1.2642903327941895
      ],
      "type": "VEC3"
    },
    {
      "bufferView": 1,
      "byteOffset": 19308,
      "componentType": 5126,
      "count": 329,
      "max": [
        1,
        1,
        1
      ],
      "min": [
        -1,
        -1,
        -1
      ],
      "type": "VEC3"
    },
    {
      "bufferView": 0,
      "byteOffset": 4032,
      "componentType": 5125,
      "count": 540,
      "max": [
        328
      ],
      "min": [
        0
      ],
      "type": "SCALAR"
    },
    {
      "bufferView": 1,
      "byteOffset": 23256,
      "componentType": 5126,
      "count": 244,
      "max": [
        1.116413950920105,
        0.70802408456802368,
        0.98262661695480347
      ],
      "min": [
        -3.0697786808013916,
        -1.4255974292755127,
        -3.3422865867614746
      ],
      "type": "VEC3"
    },
    {
      "bufferView": 1,
      "byteOffset": 26184,
      "componentType": 5126,
      "count": 244,
      "max": [
        1,
        1,
        1
      ],
      "min": [
        -1,
        -1,
        -1
      ],
      "type": "VEC3"
    },
    {
      "bufferView": 0,
      "byteOffset": 6192,
      "componentType": 5125,
      "count": 408,
      "max": [
        243
      ],
      "min": [
        0
      ],
      "type": "SCALAR"
    },
    {
      "bufferView": 1,
      "byteOffset": 29112,
      "componentType": 5126,
      "count": 96,
      "max": [
        0.91338777542114258,
        1.0816009044647217,
        0.81298989057540894
      ],
      "min": [
        -1.1263480186462402,
        -1.2496616840362549,
        -0.96402990818023682
      ],
      "type": "VEC3"
    },
    {
      "bufferView": 1,
      "byteOffset": 30264,
      "componentType": 5126,
      "count": 96,
      "max": [
        1,
        1,
        1
      ],
      "min": [
        -1,
        -1,
        -1
      ],
      "type": "VEC3"
    },
    {
      "bufferView": 0,
      "byteOffset": 7824,
      "componentType": 5125,
      "count": 168,
      "max": [
        95
      ],
      "min": [
        0
      ],
      "type": "SCALAR"
    },
    {
      "bufferView": 1,
      "byteOffset": 31416,
      "componentType": 5126,
      "count": 4,
      "max": [
        0.86693519353866577,
        -1.1676232814788818,
        0.75742828845977783
      ],
      "min": [
        -0.80761909484863281,
        -1.1676232814788818,
        -0.46501493453979492
      ],
      "type": "VEC3"
    },
    {
      "bufferView": 1,
      "byteOffset": 31464,
      "componentType": 5126,
      "count": 4,
      "max": [
        0,
        -1,
        0
      ],
      "min": [
        0,
        -1,
        0
      ],
      "type": "VEC3"
    },
    {
      "bufferView": 0,
      "byteOffset": 8496,
      "componentType": 5125,
      "count": 6,
      "max": [
        3
      ],
      "min": [
        0
      ],
      "type": "SCALAR"
    },
    {
      "bufferView": 1,
      "byteOffset": 31512,
      "componentType": 5126,
      "count": 72,
      "max": [
        -1.0303279161453247,
        1.0127545595169067,
        -0.81683140993118286
      ],
      "min": [
        -1.1119085550308228,
        0.84821343421936035,
        -0.88748234510421753
      ],
      "type": "VEC3"
    },
    {
      "bufferView": 1,
      "byteOffset": 32376,
      "componentType": 5126,
      "count": 72,
      "max": [
        1,
        0.86602568626403809,
        1
      ],
      "min": [
        -1,
        -0.86602568626403809,
        -1
      ],
      "type": "VEC3"
    },
    {
      "bufferView": 0,
      "byteOffset": 8520,
      "componentType": 5125,
      "count": 120,
      "max": [
        71
      ],
      "min": [
        0
      ],
      "type": "SCALAR"
    },
    {
      "bufferView": 1,
      "byteOffset": 33240,
      "componentType": 5126,
      "count": 56,
      "max": [
        -1.0541125535964966,
        0.44053667783737183,
        -0.77565181255340576
      ],
      "min": [
        -1.1932376623153687,
        0.064738079905509949,
        -0.90141642093658447
      ],
      "type": "VEC3"
    },
    {
      "bufferView": 1,
      "byteOffset": 33912,
      "componentType": 5126,
      "count": 56,
      "max": [
        1,
        1,
        1
      ],
      "min": [
        -1,
        -1,
        -1
      ],
      "type": "VEC3"
    },
    {
      "bufferView": 0,
      "byteOffset": 9000,
      "componentType": 5125,
      "count": 84,
      "max": [
        55
      ],
      "min": [
        0
      ],
      "type": "SCALAR"
    }
  ],
  "asset": {
    "extras": {
      "author": "inesmerino (https://sketchfab.com/inesmerino)",
      "license": "CC-BY-4.0 (http://creativecommons.org/licenses/by/4.0/)",
      "source": "https://sketchfab.com/models/ac4fc7339cd643aa93a0ea0c5b12544c",
      "title": "Computer"
    },
    "generator": "Sketchfab-3.18.5",
    "version": "2.0"
  },
  "bufferViews": [
    {
      "buffer": 0,
      "byteLength": 9336,
      "byteOffset": 0,
      "name": "floatBufferViews",
      "target": 34963
    },
    {
      "buffer": 0,
      "byteLength": 34584,
      "byteOffset": 9336,
      "byteStride": 12,
      "name": "floatBufferViews",
      "target": 34962
    }
  ],
  "buffers": [
    {
      "byteLength": 43920,
      "uri": "scene.bin"
    }
  ],
  "materials": [
    {
      "doubleSided": true,
      "emissiveFactor": [
        0,
        0,
        0
      ],
      "name": "Material.001",
      "pbrMetallicRoughness": {
        "baseColorFactor": [
          0.44406699999999999,
          0.45753300000000002,
          0.45753300000000002,
          1
        ],
        "metallicFactor": 0,
        "roughnessFactor": 0.82394172570000002
      }
    },
    {
      "doubleSided": true,
      "emissiveFactor": [
        0,
        0,
        0
      ],
      "name": "Material.006",
      "pbrMetallicRoughness": {
        "baseColorFactor": [
          0.081977099999999997,
          0.106783,
          0.19017400000000001,
          1
        ],
        "metallicFactor": 0,
        "roughnessFactor": 0.82394172570000002
      }
    },
    {
      "doubleSided": true,
      "emissiveFactor": [
        0,
        0,
        0
      ],
      "name": "Material.007",
      "pbrMetallicRoughness": {
        "baseColorFactor": [
          0.0661649089,
          0.063533755499999997,
          0.1138788422,
          1
        ],
        "metallicFactor": 0,
        "roughnessFactor": 0.95770514949999996
      }
    },
    {
      "doubleSided": true,
      "emissiveFactor": [
        0,
        0,
        0
      ],
      "name": "Material.002",
      "pbrMetallicRoughness": {
        "baseColorFactor": [
          0.80000000000000004,
          0.24090800000000001,
          0.441639,
          1
        ],
        "metallicFactor": 0,
        "roughnessFactor": 0.82394172570000002
      }
    },
    {
      "doubleSided": true,
      "emissiveFactor": [
        0,
        0,
        0
      ],
      "name": "Material.004",
      "pbrMetallicRoughness": {
        "baseColorFactor": [
          0.41773700000000002,
          0.428232,
          0.80000000000000004,
          1
        ],
        "metallicFactor": 0,
        "roughnessFactor": 0.82394172570000002
      }
    },
    {
      "doubleSided": true,
      "emissiveFactor": [
        0.5505721183398542,
        1,
        1
      ],
      "name": "Material.009",
      "pbrMetallicRoughness": {
        "baseColorFactor": [
          0.0054272440000000003,
          0.0061682758999999998,
          0.0096157397000000006,
          1
        ],
        "metallicFactor": 0,
        "roughnessFactor": 0.95770514949999996
      }
    }
  ],
  "meshes": [
    {
      "name": "keyboard 1_Material.001_0",
      "primitives": [
        {
          "attributes": {
            "NORMAL": 1,
            "POSITION": 0
          },
          "indices": 2,
          "material": 0,
          "mode": 4
        }
      ]
    },
    {
      "name": "keyboard 1_Material.006_0",
      "primitives": [
        {
          "attributes": {
            "NORMAL": 4,
            "POSITION": 3
          },
          "indices": 5,
          "material": 1,
          "mode": 4
        }
      ]
    },
    {
      "name": "keyboard 1_Material.007_0",
      "primitives": [
        {
          "attributes": {
            "NORMAL": 7,
            "POSITION": 6
          },
          "indices": 8,
          "material": 2,
          "mode": 4
        }
      ]
    },
    {
      "name": "keyboard 1_Material.002_0",
      "primitives": [
        {
          "attributes": {
            "NORMAL": 10,
            "POSITION": 9
          },
          "indices": 11,
          "material": 3,
          "mode": 4
        }
      ]
    },
    {
      "name": "keyboard 1_Material.004_0",
      "primitives": [
        {
          "attributes": {
            "NORMAL": 13,
            "POSITION": 12
          },
          "indices": 14,
          "material": 4,
          "mode": 4
        }
      ]
    },
    {
      "name": "monitor 1_Material.001_0",
      "primitives": [
        {
          "attributes": {
            "NORMAL": 16,
            "POSITION": 15
          },
          "indices": 17,
          "material": 0,
          "mode": 4
        }
      ]
    },
    {
      "name": "monitor 1_Material.006_0",
      "primitives": [
        {
          "attributes": {
            "NORMAL": 19,
            "POSITION": 18
          },
          "indices": 20,
          "material": 1,
          "mode": 4
        }
      ]
    },
    {
      "name": "monitor 1_Material.007_0",
      "primitives": [
        {
          "attributes": {
            "NORMAL": 22,
            "POSITION": 21
          },
          "indices": 23,
          "material": 2,
          "mode": 4
        }
      ]
    },
    {
      "name": "monitor 1_Material.009_0",
      "primitives": [
        {
          "attributes": {
            "NORMAL": 25,
            "POSITION": 24
          },
          "indices": 26,
          "material": 5,
          "mode": 4
        }
      ]
    },
    {
      "name": "monitor 1_Material.002_0",
      "primitives": [
        {
          "attributes": {
            "NORMAL": 28,
            "POSITION": 27
          },
          "indices": 29,
          "material": 3,
          "mode": 4
        }
      ]
    },
    {
      "name": "monitor 1_Material.004_0",
      "primitives": [
        {
          "attributes": {
            "NORMAL": 31,
            "POSITION": 30
          },
          "indices": 32,
          "material": 4,
          "mode": 4
        }
      ]
    }
  ],
  "nodes": [
    {
      "children": [
        1
      ],
      "name": "RootNode (gltf orientation matrix)",
      "rotation": [
        -0.70710678118654746,
        -0,
        -0,
        0.70710678118654757
      ]
    },
    {
      "children": [
        2
      ],
      "name": "RootNode (model correction matrix)"
    },
    {
      "children": [
        3
      ],
      "matrix": [
        1,
        0,
        0,
        0,
        0,
        0,
        1,
        0,
        0,
        -1,
        0,
        0,
        0,
        0,
        0,
        1
      ],
      "name": "8871fa3bf5184f699b89c890e88009a6.fbx"
    },
    {
      "children": [
        4,
        10
      ],
      "name": "RootNode"
    },
    {
      "children": [
        5,
        6,
        7,
        8,
        9
      ],
      "matrix": [
        63.880515687833835,
        5.5511151231257827e-15,
        -76.936855378007337,
        0,
        -76.936855378007252,
        -4.3711389841050163e-06,
        -63.880515687833771,
        0,
        -3.3630168816412009e-06,
        99.999999999999915,
        -2.7923061196588606e-06,
        0,
        -282.8780517578125,
        -66.332008361816406,
        -142.96170043945312,
        1
      ],
      "name": "keyboard 1"
    },
    {
      "mesh": 0,
      "name": "keyboard 1_Material.001_0"
    },
    {
      "mesh": 1,
      "name": "keyboard 1_Material.006_0"
    },
    {
      "mesh": 2,
      "name": "keyboard 1_Material.007_0"
    },
    {
      "mesh": 3,
      "name": "keyboard 1_Material.002_0"
    },
    {
      "mesh": 4,
      "name": "keyboard 1_Material.004_0"
    },
    {
      "children": [
        11,
        12,
        13,
        14,
        15,
        16
      ],
      "matrix": [
        63.880515687833835,
        5.5511151231257827e-15,
        -76.936855378007337,
        0,
        -76.936855378007252,
        -4.3711389841050163e-06,
        -63.880515687833771,
        0,
        -3.3630168816412009e-06,
        99.999999999999915,
        -2.7923061196588606e-06,
        0,
        -217.08879089355469,
        316.78713989257812,
        -225.17874145507812,
        1
      ],
      "name": "monitor 1"
    },
    {
      "mesh": 5,
      "name": "monitor 1_Material.001_0"
    },
    {
      "mesh": 6,
      "name": "monitor 1_Material.006_0"
    },
    {
      "mesh": 7,
      "name": "monitor 1_Material.007_0"
    },
    {
      "mesh": 8,
      "name": "monitor 1_Material.009_0"
    },
    {
      "mesh": 9,
      "name": "monitor 1_Material.002_0"
    },
    {
      "mesh": 10,
      "name": "monitor 1_Material.004_0"
    }
  ],
  "scene": 0,
  "scenes": [
    {
      "name": "OSG_Scene",
      "nodes": [
        0
      ]
    }
  ]
}

